<svg width="760" height="520" viewBox="0 0 760 520" fill="none" xmlns="http://www.w3.org/2000/svg">
  <rect width="760" height="520" rx="36" fill="#F8FAFC"/>
  <rect x="58" y="56" width="644" height="408" rx="30" fill="white" stroke="#E5E7EB" stroke-width="2"/>
  <circle cx="380" cy="210" r="74" fill="#111827"/>
  <circle cx="380" cy="210" r="34" fill="#F8FAFC"/>
  <circle cx="380" cy="210" r="10" fill="#06B6D4"/>
  <path d="M472 162C505 190 505 230 472 258" stroke="#7C3AED" stroke-width="16" stroke-linecap="round"/>
  <path d="M288 258C255 230 255 190 288 162" stroke="#F59E0B" stroke-width="16" stroke-linecap="round"/>
  <rect x="134" y="330" width="492" height="22" rx="11" fill="#E5E7EB"/>
  <rect x="134" y="330" width="322" height="22" rx="11" fill="#06B6D4"/>
  <rect x="214" y="386" width="92" height="20" rx="10" fill="#EDE9FE"/>
  <rect x="334" y="386" width="92" height="20" rx="10" fill="#FEF3C7"/>
  <rect x="454" y="386" width="92" height="20" rx="10" fill="#CFFAFE"/>
</svg>
