<svg xmlns="http://www.w3.org/2000/svg" viewBox="0 0 900 560" role="img" aria-labelledby="title desc">
  <title id="title">Illustration Partageo</title>
  <desc id="desc">Repas partagé avec liste de contributions et participants.</desc>
  <defs>
    <linearGradient id="bg" x1="0" y1="0" x2="1" y2="1"><stop offset="0" stop-color="#f0fdfa"/><stop offset="1" stop-color="#ede9fe"/></linearGradient>
    <linearGradient id="g" x1="0" y1="0" x2="1" y2="1"><stop offset="0" stop-color="#14b8a6"/><stop offset="1" stop-color="#7c3aed"/></linearGradient>
    <filter id="s" x="-20%" y="-20%" width="140%" height="140%"><feDropShadow dx="0" dy="22" stdDeviation="22" flood-color="#0f172a" flood-opacity=".16"/></filter>
  </defs>
  <rect width="900" height="560" rx="44" fill="url(#bg)"/>
  <circle cx="760" cy="96" r="88" fill="#a78bfa" opacity=".22"/>
  <circle cx="126" cy="460" r="110" fill="#2dd4bf" opacity=".20"/>
  <g filter="url(#s)">
    <rect x="120" y="86" width="660" height="388" rx="34" fill="#fff"/>
    <rect x="120" y="86" width="660" height="82" rx="34" fill="#111827"/>
    <text x="168" y="138" font-family="Inter,Arial" font-size="34" font-weight="800" fill="#fff">Partageo</text>
    <rect x="594" y="112" width="132" height="28" rx="14" fill="#34d399" opacity=".9"/>
    <text x="610" y="132" font-family="Inter,Arial" font-size="16" font-weight="800" fill="#064e3b">32 inscrits</text>
    <g transform="translate(168 206)">
      <rect width="236" height="196" rx="26" fill="#f8fafc" stroke="#e2e8f0"/>
      <circle cx="118" cy="76" r="52" fill="url(#g)" opacity=".9"/>
      <path d="M96 82c18 18 38 18 44 0" fill="none" stroke="#fff" stroke-width="12" stroke-linecap="round"/>
      <path d="M118 34v84" stroke="#fff" stroke-width="10" stroke-linecap="round"/>
      <text x="42" y="158" font-family="Inter,Arial" font-size="22" font-weight="800" fill="#0f172a">Repas partagé</text>
    </g>
    <g transform="translate(444 206)" font-family="Inter,Arial">
      <rect width="284" height="48" rx="16" fill="#ecfdf5"/>
      <circle cx="30" cy="24" r="10" fill="#10b981"/><text x="52" y="31" font-size="18" font-weight="800" fill="#065f46">Salades · 5 / 6</text>
      <rect y="70" width="284" height="48" rx="16" fill="#fef3c7"/>
      <circle cx="30" cy="94" r="10" fill="#f59e0b"/><text x="52" y="101" font-size="18" font-weight="800" fill="#92400e">Boissons · 3 / 8</text>
      <rect y="140" width="284" height="48" rx="16" fill="#eef2ff"/>
      <circle cx="30" cy="164" r="10" fill="#6366f1"/><text x="52" y="171" font-size="18" font-weight="800" fill="#3730a3">Desserts · 7 / 7</text>
    </g>
  </g>
</svg>
