<svg width="220" height="54" viewBox="0 0 220 54" fill="none" xmlns="http://www.w3.org/2000/svg" role="img" aria-labelledby="title desc">
  <title id="title">Modulys</title>
  <desc id="desc">Logo Modulys, plateforme d'outils web modulaires</desc>
  <rect x="1" y="1" width="52" height="52" rx="16" fill="#111827"/>
  <rect x="13" y="13" width="12" height="12" rx="4" fill="#7C3AED"/>
  <rect x="29" y="13" width="12" height="12" rx="4" fill="#06B6D4"/>
  <rect x="13" y="29" width="12" height="12" rx="4" fill="#F59E0B"/>
  <path d="M30 35.8L37.8 28L43 33.2" stroke="white" stroke-width="4" stroke-linecap="round" stroke-linejoin="round"/>
  <path d="M69 38V16.6H74.6L81.1 28.5L87.6 16.6H93.2V38H88.7V23.8L82.7 34.5H79.5L73.5 23.8V38H69ZM107.5 38.4C105.8 38.4 104.3 38 103 37.3C101.7 36.6 100.7 35.6 99.9 34.3C99.2 33 98.8 31.5 98.8 29.8C98.8 28.1 99.2 26.6 99.9 25.3C100.7 24 101.7 23 103 22.3C104.3 21.6 105.8 21.2 107.5 21.2C109.2 21.2 110.7 21.6 112 22.3C113.3 23 114.3 24 115.1 25.3C115.8 26.6 116.2 28.1 116.2 29.8C116.2 31.5 115.8 33 115.1 34.3C114.3 35.6 113.3 36.6 112 37.3C110.7 38 109.2 38.4 107.5 38.4ZM107.5 34.5C108.7 34.5 109.7 34.1 110.4 33.2C111.1 32.3 111.5 31.2 111.5 29.8C111.5 28.4 111.1 27.3 110.4 26.4C109.7 25.5 108.7 25.1 107.5 25.1C106.3 25.1 105.3 25.5 104.6 26.4C103.9 27.3 103.5 28.4 103.5 29.8C103.5 31.2 103.9 32.3 104.6 33.2C105.3 34.1 106.3 34.5 107.5 34.5ZM128.2 38.4C126.7 38.4 125.4 38 124.2 37.3C123.1 36.6 122.2 35.5 121.5 34.2C120.8 32.9 120.5 31.4 120.5 29.7C120.5 28 120.8 26.5 121.5 25.3C122.2 24 123.1 23 124.2 22.3C125.4 21.6 126.7 21.2 128.2 21.2C129.4 21.2 130.4 21.4 131.3 21.9C132.2 22.4 132.9 23 133.4 23.8V15.8H138V38H133.8L133.4 35.7C132.9 36.5 132.2 37.2 131.3 37.7C130.4 38.2 129.4 38.4 128.2 38.4ZM129.3 34.4C130.5 34.4 131.5 34 132.3 33.1C133.1 32.2 133.5 31.1 133.5 29.8C133.5 28.4 133.1 27.3 132.3 26.5C131.5 25.6 130.5 25.2 129.3 25.2C128.1 25.2 127.1 25.6 126.3 26.5C125.5 27.3 125.2 28.4 125.2 29.8C125.2 31.1 125.5 32.2 126.3 33.1C127.1 34 128.1 34.4 129.3 34.4ZM150.5 38.4C148.5 38.4 146.9 37.8 145.8 36.6C144.7 35.4 144.2 33.7 144.2 31.5V21.6H148.8V30.9C148.8 33.2 149.7 34.4 151.6 34.4C152.6 34.4 153.4 34 154.1 33.3C154.7 32.6 155 31.5 155 30.2V21.6H159.6V38H155.5L155.1 35.2C154.6 36.2 154 36.9 153.1 37.5C152.3 38.1 151.4 38.4 150.5 38.4ZM165.9 38V15.8H170.5V38H165.9ZM178.4 45.2L182.2 36.8H181.1L174.6 21.6H179.6L184.1 32.6L188.6 21.6H193.5L183.3 45.2H178.4ZM204.5 38.4C202.4 38.4 200.7 37.9 199.4 37C198.1 36.1 197.3 34.9 197.1 33.4H201.7C201.9 34.1 202.2 34.6 202.7 35C203.2 35.3 203.9 35.5 204.7 35.5C205.5 35.5 206.1 35.3 206.5 35C206.9 34.7 207.1 34.3 207.1 33.8C207.1 33 206.5 32.5 205.4 32.2L202.4 31.5C199.4 30.8 197.9 29.2 197.9 26.7C197.9 25.1 198.5 23.8 199.8 22.8C201.1 21.7 202.7 21.2 204.8 21.2C206.8 21.2 208.4 21.7 209.6 22.6C210.8 23.5 211.5 24.7 211.7 26.2H207.4C207.1 24.8 206.2 24.2 204.7 24.2C203.9 24.2 203.4 24.3 203 24.6C202.6 24.9 202.4 25.3 202.4 25.7C202.4 26.4 202.9 26.9 204 27.2L207.2 27.9C210.2 28.6 211.7 30.2 211.7 32.8C211.7 34.5 211.1 35.8 209.8 36.8C208.5 37.9 206.7 38.4 204.5 38.4Z" fill="#111827"/>
</svg>
